
<svg id="Layer_1" data-name="Layer 1" xmlns="http://www.w3.org/2000/svg" viewBox="0 0 151.68 132.31"><defs><style>.cls-1{fill:#fff;}</style></defs><title>triangle</title><path class="cls-1 blue orange" d="M90.61,72c5.64,9.45,11.1,18.54,16.5,27.66q29.1,49.19,58.16,98.38c.68,1.15,1.3,2.33,2,3.47,1.07,1.8.74,2.8-1.51,2.79-1,0-2,0-3,0H21.37c-6.25,0-6.27,0-3.23-5.38Q53.51,136.68,88.92,74.47C89.32,73.77,89.83,73.12,90.61,72Zm49.84,116.17-49.71-84c-5.82,10.28-11.3,19.93-16.77,29.6Q59.7,158.95,45.49,184.17c-.89,1.59-3.28,4,1.38,4C77.67,188.12,108.47,188.14,140.45,188.14Z" transform="translate(-16.16 -71.97)"/></svg>