<?xml version="1.0" encoding="utf-8"?>
<!-- Generator: Adobe Illustrator 21.0.0, SVG Export Plug-In . SVG Version: 6.00 Build 0)  -->
<svg version="1.1" id="Layer_1" xmlns="http://www.w3.org/2000/svg" xmlns:xlink="http://www.w3.org/1999/xlink" x="0px" y="0px"
	 viewBox="0 0 57.2 24.1" style="enable-background:new 0 0 57.2 24.1;" xml:space="preserve">
<path d="M56.5,16.3c-3.6,1.9-7.4,3.5-11.2,4.8c-1.6,0.5-5.6,2.3-5.6-0.6c0-2,2.1-4.1,3.5-5.4c2.6-2.4,5.3-4.7,7.9-7.2
	c1.4-1.4,5-4,4.8-6.3c-0.5-6.4-30.4,6.4-34.1,8.1C15.6,12.6,9.6,16,4.3,20.3c-0.4-0.5-0.9-1-1.3-1.5c-0.2-0.3-0.6-0.2-0.7,0.1
	c-0.2,0-0.3,0.1-0.4,0.3c-0.5,1.2-0.9,2.4-1.4,3.6c-0.1,0.2-0.2,0.4-0.4,0.6c-0.2,0.3,0.2,0.9,0.6,0.7c0,0,0.1,0,0.1,0
	c0.1,0,0.1,0,0.2,0c0.8-0.2,1.6-0.5,2.4-0.7C4,23.1,4.8,23,5.5,22.9c0.4-0.1,0.7-0.5,0.4-0.9c-0.1-0.1-0.2-0.3-0.4-0.4
	c0-0.1-0.1-0.3-0.3-0.3C5.2,21.2,5.1,21.1,5,21c6.5-5.3,14-9.1,21.8-12.2c4.2-1.7,8.4-3.2,12.6-4.8c2.3-0.8,4.5-1.6,6.9-2.2
	c1.6-0.4,9-2.5,7.7,1.6c-0.3,0.8-1.8,2-2.4,2.6c-0.8,0.9-1.7,1.7-2.5,2.5c-1.7,1.6-3.4,3.2-5.2,4.7c-2.3,2-5.3,4.6-5.3,7.9
	c-0.1,3.5,3.7,2,5.7,1.3c4.4-1.4,8.7-3.2,12.8-5.4C57.6,16.9,57,16,56.5,16.3z"/>
</svg>
