<svg id="Layer_1" data-name="Layer 1" xmlns="http://www.w3.org/2000/svg" viewBox="0 0 124.62 126.03"><defs><style>.cls-1{fill:#01162c;stroke:#000;stroke-miterlimit:10;}</style></defs><title>cross</title><path class="cls-1" d="M-677.53-428.31c-1.15-1.07-2.13-1.93-3.05-2.85-14.5-14.47-29.07-28.88-43.43-43.49-2.6-2.66-4-2.74-6.61,0-14,14.27-28.24,28.29-42.28,42.51-2.33,2.36-3.93,3.63-6.23.05-1.15-1.78-3-3.1-4.53-4.63-5.84-5.84-6-6.46.46-12.13,14-12.35,26.42-26.26,39.91-39.1,2.33-2.22,2.43-3.54.06-5.86C-753.83-504.2-764-515-774.8-525.15c-4.45-4.2-8.11-9.11-12.78-13-1.66-1.4-1.68-2.49-.06-4a107.56,107.56,0,0,0,8.45-8.5c2.08-2.41,3.35-2.13,5.49,0,14.26,14.47,28.75,28.73,43,43.24,2.74,2.8,4.18,2.79,6.93,0,14.34-14.63,29-29,43.35-43.57,2.5-2.54,4.08-3.22,6.61-.14,2.82,3.45,8.25,6.31,8.62,9.83.38,3.71-5.4,6.5-8.51,9.66q-18.57,18.87-37.38,37.52c-2.47,2.43-2.54,3.8,0,6.28,14.36,14.15,28.41,28.6,42.85,42.65,3.43,3.34,3.24,5.32-.19,8.11a94.21,94.21,0,0,0-6.73,6.68C-675.91-429.7-676.66-429.08-677.53-428.31Z" transform="translate(789.34 553.66)"/></svg>