<svg id="Layer_1" data-name="Layer 1" xmlns="http://www.w3.org/2000/svg" viewBox="0 0 125.45 125.79"><defs><style>.cls-1{fill:#01162c;}</style></defs><title>square</title><path class="cls-1" d="M-1075.66-289.37c0-19.32.07-38.65-.08-58,0-3.33.65-4.56,4.31-4.54q58.22.19,116.44,0c3.78,0,4.71,1,4.7,4.74q-.21,58.22,0,116.44c0,3.35-.76,4.62-4.39,4.6q-58.47-.18-116.93,0c-3.4,0-4.12-1.13-4.1-4.29C-1075.6-250.06-1075.66-269.72-1075.66-289.37Zm63,45.86c13.66,0,27.33-.09,41,.07,3.23,0,4.27-.87,4.26-4.18q-.18-41.5,0-83c0-3.43-1.16-4.13-4.3-4.12q-41.25.15-82.5,0c-3.47,0-4.5.88-4.48,4.43q.23,41.24,0,82.49c0,3.56,1.09,4.46,4.52,4.41C-1040.35-243.61-1026.52-243.5-1012.68-243.51Z" transform="translate(1075.74 351.89)"/></svg>