<svg id="Objects" xmlns="http://www.w3.org/2000/svg" viewBox="0 0 150.85 68.98"><defs><style>.cls-1{fill:#c9c9c9;}.cls-2{fill:#c9c9c9;}</style></defs><title>nine-eleven-logo</title><path class="cls-1" d="M3092.32,885c1.76,1.45,2.63,3.86,2.63,7.22v18h-7.18V894a7.41,7.41,0,0,0-.56-3.25c-.68-1.38-2-2.06-3.9-2.06a4.84,4.84,0,0,0-4.86,3,10.56,10.56,0,0,0-.68,4.08v14.5h-7V883.52h6.79v3.91a11.76,11.76,0,0,1,2.54-3,8.85,8.85,0,0,1,5.46-1.62A10.26,10.26,0,0,1,3092.32,885Z" transform="translate(-3011.65 -873.81)"/><path class="cls-1" d="M3105.83,880.27h-7.1v-6.46h7.1Zm-7.1,3.2h7.1v26.79h-7.1Z" transform="translate(-3011.65 -873.81)"/><path class="cls-1" d="M3131.29,885q2.63,2.18,2.63,7.22v18h-7.18V894a7.41,7.41,0,0,0-.56-3.25c-.68-1.38-2-2.06-3.9-2.06a4.84,4.84,0,0,0-4.86,3,10.37,10.37,0,0,0-.68,4.08v14.5h-7V883.52h6.79v3.91a11.76,11.76,0,0,1,2.54-3,8.85,8.85,0,0,1,5.46-1.62A10.28,10.28,0,0,1,3131.29,885Z" transform="translate(-3011.65 -873.81)"/><path class="cls-1" d="M3155.5,884a11,11,0,0,1,4.63,4,13.36,13.36,0,0,1,2.13,5.55,33.33,33.33,0,0,1,.23,5.31H3143c.1,2.69,1,4.58,2.8,5.66a7.11,7.11,0,0,0,3.86,1,5.4,5.4,0,0,0,5.33-3.07h7.16a8.8,8.8,0,0,1-2.6,4.85q-3.6,3.9-10.08,3.9a14.63,14.63,0,0,1-9.44-3.29q-4.1-3.3-4.09-10.73,0-7,3.69-10.68a12.91,12.91,0,0,1,9.58-3.72A15.22,15.22,0,0,1,3155.5,884Zm-10.49,6a7.27,7.27,0,0,0-1.86,4.15h12.07a5.83,5.83,0,0,0-1.87-4.23,6.11,6.11,0,0,0-4.15-1.45A5.57,5.57,0,0,0,3145,890.06Z" transform="translate(-3011.65 -873.81)"/><path class="cls-2" d="M3031.22,915.63a10.89,10.89,0,0,1,4.63,4,13.19,13.19,0,0,1,2.14,5.54,34.72,34.72,0,0,1,.23,5.32H3018.7c.11,2.69,1.05,4.57,2.8,5.65a7.06,7.06,0,0,0,3.87,1,5.44,5.44,0,0,0,5.33-3.07h7.15a8.76,8.76,0,0,1-2.59,4.84q-3.62,3.92-10.09,3.91a14.58,14.58,0,0,1-9.43-3.3q-4.09-3.29-4.09-10.72,0-7,3.69-10.68a12.9,12.9,0,0,1,9.58-3.72A15.21,15.21,0,0,1,3031.22,915.63Zm-10.48,6a7.31,7.31,0,0,0-1.87,4.15h12.07a5.87,5.87,0,0,0-1.86-4.24,6.16,6.16,0,0,0-4.16-1.44A5.55,5.55,0,0,0,3020.74,921.68Z" transform="translate(-3011.65 -873.81)"/><path class="cls-2" d="M3047.06,941.88h-7V910h7Z" transform="translate(-3011.65 -873.81)"/><path class="cls-2" d="M3058,941.88h-7V910h7Z" transform="translate(-3011.65 -873.81)"/><path class="cls-2" d="M3079.91,915.63a11,11,0,0,1,4.63,4,13.05,13.05,0,0,1,2.13,5.54,34.47,34.47,0,0,1,.24,5.32h-19.52q.17,4,2.8,5.65a7.05,7.05,0,0,0,3.86,1,5.91,5.91,0,0,0,3.89-1.23,5.78,5.78,0,0,0,1.45-1.84h7.15a8.72,8.72,0,0,1-2.6,4.84q-3.6,3.92-10.08,3.91a14.62,14.62,0,0,1-9.44-3.3q-4.08-3.29-4.09-10.72,0-7,3.69-10.68a12.94,12.94,0,0,1,9.59-3.72A15.21,15.21,0,0,1,3079.91,915.63Zm-10.48,6a7.31,7.31,0,0,0-1.87,4.15h12.07a5.9,5.9,0,0,0-1.86-4.24,6.18,6.18,0,0,0-4.16-1.44A5.55,5.55,0,0,0,3069.43,921.68Z" transform="translate(-3011.65 -873.81)"/><path class="cls-2" d="M3104.06,915.09h7.52l-9.67,26.79h-7.39l-9.61-26.79h7.87l5.58,19.76Z" transform="translate(-3011.65 -873.81)"/><path class="cls-2" d="M3129.58,915.63a11,11,0,0,1,4.63,4,13.05,13.05,0,0,1,2.13,5.54,33.47,33.47,0,0,1,.23,5.32h-19.51q.17,4,2.8,5.65a7.05,7.05,0,0,0,3.86,1,5.91,5.91,0,0,0,3.89-1.23,5.62,5.62,0,0,0,1.44-1.84h7.16a8.78,8.78,0,0,1-2.6,4.84q-3.6,3.92-10.08,3.91a14.6,14.6,0,0,1-9.44-3.3q-4.1-3.29-4.09-10.72,0-7,3.69-10.68a12.92,12.92,0,0,1,9.59-3.72A15.21,15.21,0,0,1,3129.58,915.63Zm-10.48,6a7.25,7.25,0,0,0-1.87,4.15h12.07a5.87,5.87,0,0,0-1.87-4.24,6.13,6.13,0,0,0-4.15-1.44A5.55,5.55,0,0,0,3119.1,921.68Z" transform="translate(-3011.65 -873.81)"/><path class="cls-2" d="M3159.87,916.62q2.63,2.18,2.63,7.22v18h-7.18v-16.3a7.51,7.51,0,0,0-.56-3.24c-.68-1.38-2-2.07-3.91-2.07a4.84,4.84,0,0,0-4.85,3,10.34,10.34,0,0,0-.68,4.08v14.5h-7V915.13h6.78V919a11.89,11.89,0,0,1,2.55-3,8.85,8.85,0,0,1,5.46-1.62A10.28,10.28,0,0,1,3159.87,916.62Z" transform="translate(-3011.65 -873.81)"/></svg>